# xmcd
#
# Track frame offsets:
#	150
#	43064
#	72443
#	102166
#	124272
#	166515
#	192155
#	222489
#	248801
#	276908
#
# Disc length: 4144 seconds
#
# Revision: 0
# Processed by: cddbd v1.5.2PL0 Copyright (c) Steve Scherf et al.
# Submitted via: audiograbber 1.83.01
#
DISCID=92102e0a
DTITLE=Barry Finnerty - Blues for Trane
DYEAR=2008
DGENRE=Blues
TTITLE0=Blues For Trane
TTITLE1=Interception
TTITLE2=Big Nick
TTITLE3=Knee-Bop
TTITLE4=You Are Too Beautiful
TTITLE5=Blue Z
TTITLE6=The Terrace
TTITLE7=Two
TTITLE8=Resolution
TTITLE9=Green Dolphin Street
EXTD=David Kikoski - piano and fender-rhodes\nRon McClure - acoustic bass\nVict
EXTD=ore Jones - drums (1,3,5,9,10]\nGraham Hawthorne - drums (2,4,6,7,8]\nChug
EXTD=gy Carter - percussion\nBarry Finnerty - guitars, vocal (5)
EXTT0=
EXTT1=
EXTT2=
EXTT3=
EXTT4=
EXTT5=
EXTT6=
EXTT7=
EXTT8=
EXTT9=
PLAYORDER=
